<svg xmlns="http://www.w3.org/2000/svg" viewBox="0 0 113 113"><defs><style>.cls-1{fill:#faf8f0;}.cls-2{fill:#08394c;}.cls-3{fill:#dd4053;}</style></defs><title>Recurso 5</title><g id="Capa_2" data-name="Capa 2"><g id="Capa_2-2" data-name="Capa 2"><text/></g><g id="Capa_12" data-name="Capa 12"><circle class="cls-1" cx="56.5" cy="56.5" r="56.12"/><path class="cls-2" d="M56.5.75A55.75,55.75,0,1,1,.75,56.5,55.81,55.81,0,0,1,56.5.75m0-.75A56.5,56.5,0,1,0,113,56.5,56.51,56.51,0,0,0,56.5,0Z"/><circle class="cls-1" cx="56.31" cy="56.31" r="52.73" transform="translate(-23.32 56.31) rotate(-45)"/><path class="cls-3" d="M56.31,4A52.35,52.35,0,1,1,4,56.31,52.41,52.41,0,0,1,56.31,4m0-.75a53.11,53.11,0,1,0,53.11,53.1A53.1,53.1,0,0,0,56.31,3.21Z"/></g><g id="Capa_7" data-name="Capa 7"><path class="cls-2" d="M19.55,26h1.52a20.73,20.73,0,0,1,4.46.49,10.84,10.84,0,0,1,3.9,1.66,8.65,8.65,0,0,1,2.75,3.21,11.16,11.16,0,0,1,1,5.17V79.29a11,11,0,0,1-1.1,5.26,8.49,8.49,0,0,1-2.85,3.16,11.18,11.18,0,0,1-4.08,1.58,25.53,25.53,0,0,1-4.7.44h-.95Zm14.82,27.2H43c-.25,1.23-.54,2.35-.85,3.38a7.75,7.75,0,0,1-1.38,2.63A6.48,6.48,0,0,1,38.45,61a8.59,8.59,0,0,1-3.61.66h-.47ZM43,26h1.52a20.82,20.82,0,0,1,4.47.49,10.86,10.86,0,0,1,3.89,1.66,8.68,8.68,0,0,1,2.76,3.21,11.29,11.29,0,0,1,1,5.17V79.29a11,11,0,0,1-1.09,5.26,8.49,8.49,0,0,1-2.85,3.16,11.16,11.16,0,0,1-4.09,1.58,25.53,25.53,0,0,1-4.7.44H43Z"/><path class="cls-3" d="M77,89.28h-1a25.28,25.28,0,0,1-4.75-.43,11.38,11.38,0,0,1-4-1.58,8.57,8.57,0,0,1-2.85-3.16,11,11,0,0,1-1.09-5.26V36.13a11.34,11.34,0,0,1,1-5.18,8.72,8.72,0,0,1,2.76-3.2A10.88,10.88,0,0,1,71,26.08a20.82,20.82,0,0,1,4.47-.48H77ZM97.83,33.93a7.82,7.82,0,0,1-1.14,4.48A8.85,8.85,0,0,1,93.93,41a9.85,9.85,0,0,1-3.42,1.27,18.5,18.5,0,0,1-3.13.31,8.48,8.48,0,0,1-1.91-.18v-4a3.85,3.85,0,0,0-.85-2.59,3.06,3.06,0,0,0-2.47-1,4.53,4.53,0,0,0-3,1h0a4.34,4.34,0,0,1-.33-1.27,12.35,12.35,0,0,1,0-1.27,7.48,7.48,0,0,1,.52-2.63,7.37,7.37,0,0,1,1.62-2.55,8.19,8.19,0,0,1,2.85-1.88A10.74,10.74,0,0,1,88,25.51a11.73,11.73,0,0,1,3.8.62,9.29,9.29,0,0,1,3.13,1.75A9,9,0,0,1,97,30.55,7.15,7.15,0,0,1,97.83,33.93ZM79,52.79h8.46a19,19,0,0,1-.33,3.69,7.76,7.76,0,0,1-1.24,2.94,6,6,0,0,1-2.42,2,9.29,9.29,0,0,1-3.9.7H79Z"/><path class="cls-2" d="M19.55,26h1.52a20.73,20.73,0,0,1,4.46.49,10.84,10.84,0,0,1,3.9,1.66,8.65,8.65,0,0,1,2.75,3.21,11.16,11.16,0,0,1,1,5.17V79.29a11,11,0,0,1-1.1,5.26,8.49,8.49,0,0,1-2.85,3.16,11.18,11.18,0,0,1-4.08,1.58,25.53,25.53,0,0,1-4.7.44h-.95Zm14.82,27.2H43c-.25,1.23-.54,2.35-.85,3.38a7.75,7.75,0,0,1-1.38,2.63A6.48,6.48,0,0,1,38.45,61a8.59,8.59,0,0,1-3.61.66h-.47ZM43,26h1.52a20.82,20.82,0,0,1,4.47.49,10.86,10.86,0,0,1,3.89,1.66,8.68,8.68,0,0,1,2.76,3.21,11.29,11.29,0,0,1,1,5.17V79.29a11,11,0,0,1-1.09,5.26,8.49,8.49,0,0,1-2.85,3.16,11.16,11.16,0,0,1-4.09,1.58,25.53,25.53,0,0,1-4.7.44H43Z"/><path class="cls-3" d="M77,89.28h-1a25.28,25.28,0,0,1-4.75-.43,11.38,11.38,0,0,1-4-1.58,8.57,8.57,0,0,1-2.85-3.16,11,11,0,0,1-1.09-5.26V36.13a11.34,11.34,0,0,1,1-5.18,8.72,8.72,0,0,1,2.76-3.2A10.88,10.88,0,0,1,71,26.08a20.82,20.82,0,0,1,4.47-.48H77ZM97.83,33.93a7.82,7.82,0,0,1-1.14,4.48A8.85,8.85,0,0,1,93.93,41a9.85,9.85,0,0,1-3.42,1.27,18.5,18.5,0,0,1-3.13.31,8.48,8.48,0,0,1-1.91-.18v-4a3.85,3.85,0,0,0-.85-2.59,3.06,3.06,0,0,0-2.47-1,4.53,4.53,0,0,0-3,1h0a4.34,4.34,0,0,1-.33-1.27,12.35,12.35,0,0,1,0-1.27,7.48,7.48,0,0,1,.52-2.63,7.37,7.37,0,0,1,1.62-2.55,8.19,8.19,0,0,1,2.85-1.88A10.74,10.74,0,0,1,88,25.51a11.73,11.73,0,0,1,3.8.62,9.29,9.29,0,0,1,3.13,1.75A9,9,0,0,1,97,30.55,7.15,7.15,0,0,1,97.83,33.93ZM79,52.79h8.46a19,19,0,0,1-.33,3.69,7.76,7.76,0,0,1-1.24,2.94,6,6,0,0,1-2.42,2,9.29,9.29,0,0,1-3.9.7H79Z"/></g></g></svg>